<?xml version="1.0" encoding="UTF-8"?>
<svg id="Livello_1" data-name="Livello 1" xmlns="http://www.w3.org/2000/svg" viewBox="0 0 2048 2048">
  <defs>
    <style>
      .cls-1 {
        fill: #fff;
      }
    </style>
  </defs>
  <path class="cls-1" d="M667.78,701.67l34.89,422.67,339.71,239.83,8.57-5.94,1.06-253.11-224.58-141.64s-8.39,3.77-8.39,3.72c0-.44,3.89,86.33,3.89,86.33l145.21,95.33.57,74-199.92-135.64-15.67-247.89,290.67,176.44,10.22-4.89v-95.11l-376.44-217.33-9.78,3.22Z"/>
  <path class="cls-1" d="M1411,757.67l-9.33-3.33-292,162.67-8.78,441.67,8.78,5.49,265.69-178.96,87.92-148.36,24.27-212.2-76.54-66.97ZM1394,1031.3l-58.11,95.86-150.02,98.21,10.46-254.37,168.33-98.33,41.05,32.1-11.72,126.54Z"/>
  <polygon class="cls-1" points="1034 840.28 1130.67 840.28 1425 681.61 1425 672.28 1418 629.61 1321.17 585.11 1212.83 583.94 1209 535.11 1121.83 494.44 1046.5 494.44 751 622.78 742.17 663.28 742.17 674.44 819.5 719.11 901.06 681.78 901.28 672 863.94 651.56 1084.38 551.75 1148.19 580.8 1007.73 647.35 1007.92 656.56 1083.58 695.72 1233.06 621.96 1303.5 655.28 1083.58 768.44 1029.06 739.56 947.67 780.89 947.67 791.28 1034 840.28"/>
</svg>