<?xml version="1.0" encoding="UTF-8" standalone="no"?>
<!-- Created with Inkscape (http://www.inkscape.org/) -->
<svg xmlns:rdf="http://www.w3.org/1999/02/22-rdf-syntax-ns#" xmlns="http://www.w3.org/2000/svg" height="196.692" width="167.417" version="1.1" xmlns:cc="http://creativecommons.org/ns#" xmlns:dc="http://purl.org/dc/elements/1.1/">
 <defs>
  <clipPath id="clipPath3801" clipPathUnits="userSpaceOnUse">
   <path d="m301.85,68.616,16.056,0,0,19.436-16.056,0,0-19.436z"/>
  </clipPath>
 </defs>
 <metadata>
  <rdf:RDF>
   <cc:Work rdf:about="">
    <dc:format>image/svg+xml</dc:format>
    <dc:type rdf:resource="http://purl.org/dc/dcmitype/StillImage"/>
    <dc:title/>
   </cc:Work>
  </rdf:RDF>
 </metadata>
 <g transform="translate(-593.90781,-412.78647)">
  <g transform="matrix(8.6617457,0,0,-8.6617457,-2006.4669,1189.6394)">
   <g clip-path="url(#clipPath3801)">
    <g transform="translate(314.0887,70.3635)">
     <path d="M0,0c0.091,0.172,0.271,0.29,0.48,0.292,0.208,0.001,0.39-0.114,0.484-0.284l-0.964-0.008zm0.477,0.632c-0.49-0.004-0.885-0.404-0.881-0.895,0.004-0.49,0.405-0.885,0.895-0.881,0.339,0.003,0.631,0.195,0.779,0.474l-0.433-0.003c-0.094-0.08-0.215-0.129-0.348-0.131-0.276-0.001-0.504,0.2-0.545,0.464l0.508,0.004,0.917,0.007c0.002,0.026,0.003,0.053,0.003,0.08-0.004,0.491-0.405,0.885-0.895,0.881m1.495-0.632c0.091,0.172,0.271,0.29,0.48,0.292,0.208,0.001,0.39-0.114,0.484-0.284l-0.964-0.008zm0.477,0.632c-0.49-0.004-0.885-0.404-0.881-0.895,0.004-0.49,0.405-0.885,0.895-0.881,0.339,0.003,0.631,0.195,0.779,0.474l-0.433-0.003c-0.094-0.08-0.215-0.129-0.348-0.131-0.276-0.001-0.504,0.2-0.545,0.464l0.508,0.004,0.917,0.007c0.002,0.026,0.003,0.053,0.003,0.08-0.004,0.491-0.405,0.885-0.895,0.881m-2.771-0.18c0.031,0.057,0.084,0.142,0.09,0.203,0.003,0.028,0.013,0.051,0.027,0.07-0.005,0.001-0.012-0.002-0.021-0.008-0.095-0.066-0.3,0.102-0.44-0.059-0.06-0.07-0.1-0.144-0.125-0.205-0.002-0.003-0.003-0.005-0.004-0.007v-0.003c-0.03-0.075-0.039-0.129-0.039-0.129s0.001-0.002,0.004-0.005c-0.015-0.029-0.029-0.057-0.045-0.086l0.001,0.408h-0.34v-1.78h0.338l0.001,1.246c0.026,0.055,0.057,0.115,0.091,0.173,0.053-0.032,0.148-0.058,0.287,0.022,0.067,0.039,0.127,0.098,0.175,0.16m-1.563,0.773-0.34-0.227,0-0.366-0.445,0,0-0.34,0.445,0,0-1.438,0.34,0,0,1.438,0.453,0,0,0.34-0.453,0,0,0.593zm-0.701,7.332c0.101,0.191,0.078,0.158,0.168,0.281,0.09,0.124,0.146,0.113-0.022,0.146-0.169,0.034-0.192,0.135-0.27,0.012-0.078-0.124-0.101-0.169-0.011-0.259s0-0.135,0.056-0.18,0.079,0,0.079,0m1.741-0.337c-0.067,0.068-0.179,0.09-0.213-0.045s-0.168-0.168-0.18-0.359c-0.011-0.191-0.034-0.247-0.09-0.36-0.056-0.112-0.011-0.258-0.011-0.258l0.112-0.011c0.135,0.067,0.169,0.146,0.293,0.247,0.123,0.101,0.179,0.123,0.123,0.314s0.034,0.405-0.034,0.472m2.781,9.468-5.41,0c0.102-0.142,0.392-0.438,0.371-0.568-0.022-0.135,0.247-0.315,0.315-0.45,0.067-0.135,0.404-0.022,0.449-0.18,0.045-0.157,0.337-0.112,0.36-0.202,0.022-0.09,0.022-0.292,0.135-0.269,0.112,0.022,0.202,0.269,0.359,0.224s0.359,0.068,0.427-0.067c0.067-0.135,0.067-0.202,0-0.27-0.068-0.067-0.068-0.202,0.112-0.18,0.18,0.023,0.225,0.135,0.427,0.068,0.202-0.068,0.203,0.09,0.36,0.09s0.337-0.158,0.359-0.247c0.023-0.09,0.225-0.225,0.315-0.225s0.337,0.045,0.427-0.068c0.09-0.112,0.27-0.224,0.18-0.382-0.09-0.157-0.113-0.427-0.113-0.427l0.248-0.135c0.022-0.134,0.179-0.179,0.045-0.494-0.135-0.315-0.068-0.27,0.045-0.359,0.112-0.09,0.202-0.18,0.224-0.45,0.023-0.27-0.045-0.315,0.202-0.405,0.248-0.089,0.382-0.157,0.607-0.337,0.225-0.179,0.337-0.247,0.585-0.292,0.247-0.045,0.449,0,0.494-0.224,0.045-0.225,0.18-0.18,0.202-0.45,0.015-0.171,0.111-0.179,0.156-0.232v4.65c0,1.035-0.847,1.881-1.881,1.881m1.655-9.614c-0.014-0.042-0.026-0.077-0.038-0.108-0.047-0.125-0.086-0.18-0.206-0.285-0.18-0.157-0.225-0.022-0.427-0.067-0.203-0.045-0.247-0.136-0.45-0.315-0.202-0.18-0.382-0.247-0.449-0.135-0.068,0.112-0.202,0.023-0.202,0.023s0-0.068-0.225-0.09c-0.225-0.023,0,0.09-0.247,0.09-0.248,0-0.225-0.068-0.225-0.068l-0.09-0.09c-0.157,0-0.157,0.225-0.292,0.225s-0.09,0.067-0.247-0.112c-0.158-0.18-0.383-0.068-0.472-0.248-0.09-0.179,0.022-0.112-0.158-0.269-0.18-0.158-0.41-0.211-0.472-0.427-0.089-0.315-0.067-0.203-0.337-0.203-0.269,0-0.269,0.045-0.472-0.089-0.202-0.135-0.27-0.203-0.449-0.27-0.18-0.068-0.292-0.135-0.449-0.18-0.158-0.045-0.023-0.337-0.135-0.562-0.113-0.225-0.203-0.449-0.203-0.831s0-0.472,0.045-0.832c0.045-0.359,0.045-0.989,0.113-1.258,0.047-0.19,0.204-0.246,0.287-0.34h4.145c1.034,0,1.881,0.846,1.881,1.88v4.765c-0.06-0.066-0.135-0.133-0.226-0.204m-0.331-6.902h-0.059v0.091h0.056c0.024,0,0.04-0.001,0.049-0.005,0.009-0.003,0.016-0.009,0.021-0.016s0.007-0.015,0.007-0.024c0-0.014-0.005-0.025-0.015-0.033-0.011-0.009-0.03-0.013-0.059-0.013m0.065-0.051c-0.006,0.006-0.015,0.011-0.026,0.016,0.027,0.002,0.047,0.011,0.063,0.027,0.016,0.017,0.024,0.036,0.024,0.058,0,0.016-0.005,0.031-0.014,0.045-0.01,0.014-0.022,0.024-0.038,0.029-0.016,0.006-0.042,0.008-0.077,0.008h-0.105v-0.303h0.049v0.129h0.029c0.017,0,0.03-0.003,0.039-0.01,0.013-0.01,0.03-0.033,0.051-0.071l0.027-0.048h0.06l-0.037,0.06c-0.018,0.028-0.033,0.048-0.045,0.06m-7.118-1.932c-0.302,0.001-0.547,0.245-0.547,0.548,0,0.302,0.245,0.547,0.547,0.548,0.303-0.001,0.548-0.246,0.548-0.548,0-0.303-0.245-0.547-0.548-0.548m0.553,1.243c-0.152,0.12-0.344,0.193-0.553,0.193-0.49,0-0.887-0.398-0.888-0.888,0.001-0.49,0.398-0.888,0.888-0.888,0.209,0,0.401,0.072,0.553,0.193v-0.188h0.34v2.371l-0.34-0.227v-0.566zm6.72,0.608c-0.021-0.037-0.05-0.066-0.087-0.086-0.038-0.021-0.077-0.032-0.117-0.032-0.041,0-0.08,0.011-0.117,0.032-0.037,0.02-0.066,0.049-0.087,0.086-0.021,0.038-0.031,0.077-0.031,0.117,0,0.041,0.01,0.08,0.031,0.118,0.022,0.038,0.051,0.066,0.088,0.087,0.038,0.02,0.076,0.03,0.116,0.03,0.039,0,0.078-0.01,0.115-0.03,0.038-0.021,0.067-0.049,0.088-0.087s0.032-0.077,0.032-0.118c0-0.04-0.011-0.079-0.031-0.117m-0.066,0.362c-0.045,0.025-0.091,0.037-0.138,0.037s-0.094-0.012-0.139-0.037c-0.045-0.024-0.08-0.058-0.105-0.104-0.025-0.045-0.038-0.092-0.038-0.141,0-0.048,0.013-0.095,0.037-0.14,0.025-0.045,0.06-0.079,0.105-0.104,0.044-0.025,0.091-0.037,0.14-0.037s0.095,0.012,0.14,0.037,0.079,0.059,0.104,0.104,0.037,0.092,0.037,0.14c0,0.049-0.012,0.096-0.038,0.141-0.025,0.046-0.06,0.08-0.105,0.104m-15.458,12.19c0.026,0.02,0.052,0.038,0.08,0.054,0.246,0.148,0.556,0.182,0.855,0.202,0.035,0.009,0.069,0.021,0.101,0.033,0.095,0.036,0.174,0.081,0.241,0.115,0.135,0.067,0.203,0.045,0.405-0.068,0.202-0.112,0.382,0,0.427,0.068,0.045,0.067-0.067,0.09-0.045,0.36,0.022,0.269,0.18,0.382,0.315,0.516,0.135,0.135,0.404,0.27,0.472,0.427,0.067,0.158,0.134,0.18,0.292,0.113,0.157-0.068,0.314,0,0.314,0l0.023,0.067s-0.068,0.045,0.022,0.18,0.27,0.36,0.337,0.315c0.068-0.045,0.046,0.044,0.158,0.224s0.09,0.293,0.359,0.315c0.27,0.022,0.36,0.067,0.517,0.135,0.158,0.067,0.292,0.202,0.292,0.337s-0.067,0.27,0.18,0.314c0.247,0.045,0.315,0.046,0.607,0.225,0.091,0.056,0.167,0.113,0.235,0.164h-4.501c-1.035,0-1.881-0.846-1.881-1.881v-2.402c0.014,0.026,0.03,0.048,0.047,0.068,0.053,0.06,0.119,0.096,0.148,0.119m2.494-14.401c-0.302,0.001-0.547,0.246-0.547,0.548,0,0.303,0.245,0.548,0.547,0.548,0.303,0,0.548-0.245,0.548-0.548,0-0.302-0.245-0.547-0.548-0.548m0,1.436c-0.209,0-0.401-0.072-0.552-0.193v0.189h-0.34v-2.371l0.34,0.226v0.567c0.151-0.121,0.343-0.194,0.552-0.194,0.491,0.001,0.888,0.398,0.888,0.888,0,0.491-0.397,0.888-0.888,0.888m4.211,7.515c0.045-0.045,0.157-0.102,0.157-0.102,0.101-0.033,0.202-0.022,0.169,0.068-0.034,0.09-0.101,0.011-0.113,0.101-0.011,0.09,0.045,0.079-0.112,0.101-0.157,0.023-0.214,0.067-0.202-0.034,0.011-0.101,0.056-0.089,0.101-0.134m-5.019-6.509,5.374,0c0.044,0.037,0.096,0.083,0.15,0.137,0.158,0.158,0.36,0.652,0.36,0.922,0,0.269,0.157,0.809,0.022,1.213-0.134,0.405-0.179,0.742-0.292,1.012-0.112,0.269-0.18,0.561-0.112,0.876,0.067,0.315,0,0.742-0.135,0.697s-0.225-0.023-0.404,0.045c-0.18,0.067-0.45,0.337-0.607,0.427s-0.247,0.224-0.36,0.337c-0.112,0.112,0.023,0.27-0.112,0.36-0.135,0.089-0.315,0.247-0.382,0.314-0.068,0.067-0.18,0.09-0.27,0s-0.18-0.202-0.337-0.18c-0.157,0.023-0.292,0.18-0.405,0.067-0.112-0.112-0.157-0.201-0.247-0.201s-0.225,0.067-0.225,0.157,0.068,0.202-0.157,0.135c-0.224-0.068-0.427-0.113-0.494,0.044-0.068,0.158-0.158,0.18-0.18,0.27s-0.045,0.27,0,0.337c0.045,0.068-0.045,0.158-0.135,0.18s-0.022,0.09-0.022,0.225-0.18-0.023-0.202,0.135c-0.023,0.157,0.202,0.382,0.112,0.494s-0.112,0-0.112,0-0.203-0.045-0.338-0.045c-0.134,0-0.382,0.18-0.472,0.112-0.09-0.067-0.09,0.023-0.224,0.045-0.135,0.023-0.247-0.067-0.382,0.023s-0.36,0.202-0.36,0.292-0.157,0.247-0.157,0.337-0.09,0.225-0.157,0.247c-0.068,0.023,0.022,0.292,0.022,0.292h-0.09s0-0.022-0.135-0.044c-0.033-0.006-0.066-0.009-0.095-0.008-0.113,0.059-0.209,0.144-0.305,0.227-0.006,0.005-0.011,0.009-0.016,0.013v-7.614c0-1.034,0.846-1.88,1.881-1.88m4.192-1.633c0.091,0.172,0.271,0.29,0.48,0.292,0.208,0.001,0.39-0.114,0.484-0.284l-0.964-0.008zm0.477,0.632c-0.49-0.004-0.884-0.404-0.881-0.895,0.004-0.49,0.405-0.885,0.895-0.881,0.339,0.003,0.631,0.195,0.779,0.474l-0.433-0.003c-0.094-0.08-0.215-0.129-0.348-0.131-0.276-0.001-0.504,0.2-0.545,0.464l0.508,0.004,0.917,0.007c0.002,0.026,0.003,0.053,0.003,0.08-0.004,0.491-0.404,0.885-0.895,0.881m1.148,8.97c0.044-0.089,0.112-0.157,0.112-0.157,0.067,0.079,0.022,0.09,0.101,0.169,0.079,0.078,0.135,0.044,0.079,0.157-0.056,0.112-0.057,0.168-0.146,0.09-0.09-0.079-0.18-0.057-0.214-0.124-0.033-0.067,0.023-0.045,0.068-0.135m-6.609-9.699-0.452,0.009c-0.095,0.019-0.167,0.1-0.167,0.197,0,0.096,0.072,0.177,0.167,0.197h0.438c0.089-0.019,0.157-0.099,0.157-0.194h0.323c-0.001,0.288-0.233,0.52-0.52,0.521h-0.002v0.001c-0.147-0.001-0.347-0.001-0.355-0.001-0.303,0-0.547-0.231-0.548-0.524,0.001-0.272,0.211-0.495,0.482-0.527l0.452-0.009c0.095-0.019,0.166-0.1,0.166-0.197s-0.071-0.178-0.166-0.197h-0.449c-0.095,0.014-0.169,0.098-0.169,0.198h-0.323c0.001-0.261,0.187-0.476,0.432-0.519,0.014-0.007,0.017-0.005,0.068-0.012,0.141,0,0.392-0.001,0.4-0.001,0.302,0.001,0.547,0.238,0.547,0.531,0,0.272-0.21,0.495-0.481,0.527m3.034,0.099c0.092,0.171,0.273,0.289,0.481,0.29,0.209,0.001,0.39-0.115,0.484-0.286l-0.965-0.004zm0.48,0.63c-0.491-0.002-0.886-0.401-0.884-0.892,0.002-0.49,0.401-0.886,0.892-0.884,0.338,0.002,0.631,0.192,0.78,0.471l-0.433-0.002c-0.094-0.079-0.215-0.128-0.349-0.129-0.275,0-0.503,0.201-0.543,0.465l0.508,0.003,0.917,0.004c0.002,0.026,0.004,0.053,0.004,0.08-0.003,0.491-0.402,0.886-0.892,0.884" fill-rule="nonzero" fill="#000"/>
    </g>
   </g>
  </g>
 </g>
</svg>
